
<svg height="100%" stroke-miterlimit="10" style="fill-rule:nonzero;clip-rule:evenodd;stroke-linecap:round;stroke-linejoin:round;" version="1.1" viewBox="0 0 2560 1440" width="100%" xml:space="preserve" xmlns="http://www.w3.org/2000/svg" xmlns:vectornator="http://vectornator.io" xmlns:xlink="http://www.w3.org/1999/xlink">
<defs/>
<g id="Слой-1" vectornator:layerName="Слой 1">
<path d="M2513.54 398.497C2513.54 339.485 2345.47 254.42 2305.16 304.287C2203.99 429.432 2415.85 622.001 2011.66 561.269C1963.63 554.053 1925 538.94 1892.86 502.45C1816.79 416.073 1855.2 262.146 1943.32 199.677C1944.99 198.495 1976.46 179.374 1985.02 188.229C2025.59 230.201 1914.73 399.423 1958.84 397.65C2108.84 391.621 2504.23 194.976 2147.74 122.784C1556.36 3.02745 1439.56 576.813 1072.33 812.517C949.204 891.542 652.915 753.043 604.644 618.964C571.702 527.465 833.898 514.831 1027.44 552.984C1114.28 570.104 1198.23 600.566 1280.82 632.394C1608.77 758.772 2095.64 1239.64 2128.06 562.728C2142.51 261.127 1782.22 378.193 1630.91 505.011C1539.87 581.314 1609.81 646.029 1675.99 709.354C1696.95 729.406 1760.19 763.598 1733.41 774.733C1676.98 798.193 1501.52 722.486 1464.79 711.826C1367.47 683.585 726.571 590.297 682.506 537.494C593.027 430.274 1013.99 266.172 1116.86 264.933C1129.73 264.778 1158.24 272.753 1150.84 283.285C1119.16 328.362 996.749 332.697 954.566 336.715C873.886 344.399 775.638 354.503 697.918 322.951C559.71 266.843 536.481 152.346 380.947 270.122C203.441 404.536 929.688 730.79 529.955 822.617C482.694 833.474 427.409 838.965 379.176 841.403C320.622 844.362 261.533 843.723 208.129 816.002C152.172 786.956 44.3075 589.52 123.452 543.241C205.68 495.158 296.409 461.665 388.318 437.717C415.043 430.754 471.744 420.261 503.107 416.158C517.285 414.304 559.925 410.548 545.913 413.396C459.957 430.871 425.588 301.838 419.41 241.715C414.014 189.21 444.287 74.3186 383.898 43.8085" fill="none" opacity="1" stroke="#007aff" stroke-linecap="round" stroke-linejoin="round" stroke-width="10.44"/>
</g>
</svg>
